<?xml version="1.0" standalone="no"?>
<!DOCTYPE svg PUBLIC "-//W3C//DTD SVG 20010904//EN"
 "http://www.w3.org/TR/2001/REC-SVG-20010904/DTD/svg10.dtd">
<svg version="1.0" xmlns="http://www.w3.org/2000/svg"
 width="900.000000pt" height="611.000000pt" viewBox="0 0 900.000000 611.000000"
 preserveAspectRatio="xMidYMid meet">

<g transform="translate(0.000000,611.000000) scale(0.100000,-0.100000)"
fill="#000000" stroke="none">
<path d="M0 3055 l0 -3055 4500 0 4500 0 0 3055 0 3055 -4500 0 -4500 0 0
-3055z m258 2932 l3 -58 -58 3 -58 3 -3 43 c-4 59 10 74 67 70 l46 -3 3 -58z
m2005 2 c22 -2 22 -2 0 -6 -13 -2 -24 -12 -24 -21 -1 -15 -2 -15 -6 1 -2 9
-12 18 -21 18 -15 1 -15 2 1 6 9 2 18 14 18 26 2 22 2 22 6 0 3 -15 12 -23 26
-24z m-1860 24 c-16 -3 -23 -11 -23 -28 0 -19 6 -25 33 -28 26 -4 24 -4 -8 -3
-30 1 -41 6 -43 19 -5 25 16 47 42 46 20 -2 20 -2 -1 -6z m69 -33 c9 -22 13
-40 9 -40 -4 0 -15 18 -24 40 -20 52 -7 52 15 0z m38 9 c0 -39 22 -34 32 7 6
27 6 27 5 -6 -2 -30 -5 -35 -27 -35 -21 0 -26 5 -28 33 -2 18 1 32 7 32 6 0
11 -14 11 -31z m255 -6 c8 -20 13 -38 10 -41 -4 -4 -35 59 -35 73 0 15 12 1
25 -32z m35 7 c0 -42 27 -40 33 3 4 31 4 31 5 -5 2 -34 0 -38 -23 -38 -14 0
-26 3 -26 8 -7 43 -6 62 2 62 5 0 9 -13 9 -30z m215 -16 c14 -34 14 -37 0 -20
-8 11 -15 26 -15 33 0 20 -28 3 -33 -20 -3 -18 -5 -17 -6 6 -1 18 4 27 14 27
8 0 15 5 15 12 0 18 8 6 25 -38z m80 11 c0 -25 -4 -31 -27 -33 -19 -2 -28 2
-33 18 -8 27 12 52 39 48 16 -2 21 -10 21 -33z m185 20 c20 -24 3 -55 -31 -55
-18 0 -28 4 -24 10 4 6 -6 10 -22 9 -25 0 -26 -1 -8 -9 19 -8 19 -9 -2 -9 -17
-1 -23 5 -23 19 0 25 29 38 41 19 6 -11 9 -8 9 9 0 16 6 22 24 22 13 0 29 -7
36 -15z m209 -21 c18 -49 8 -53 -12 -4 -8 22 -12 40 -8 40 4 0 13 -16 20 -36z
m76 1 c0 -25 -4 -30 -27 -33 -26 -3 -28 -1 -28 33 0 34 2 36 28 33 23 -3 27
-8 27 -33z m135 19 c0 -8 4 -13 9 -10 5 3 9 -5 9 -17 0 -15 -7 -23 -19 -24
-15 -1 -19 5 -19 33 0 19 5 34 10 34 6 0 10 -7 10 -16z m208 7 c15 13 16 12 3
-3 -11 -15 -11 -21 0 -35 13 -16 12 -17 -3 -4 -15 11 -21 11 -35 0 -16 -13
-17 -12 -4 4 11 14 11 20 0 35 -13 15 -12 16 4 3 14 -11 20 -11 35 0z m-1317
-20 c-8 -5 -9 -11 -3 -15 5 -3 15 1 22 9 7 8 19 15 26 15 21 0 17 -30 -3 -31
-15 0 -15 -2 2 -9 14 -5 6 -8 -29 -8 -33 0 -45 3 -35 9 10 6 10 9 2 9 -7 0
-13 7 -13 15 0 9 9 15 23 15 16 0 18 -3 8 -9z m91 -16 c-2 -14 -8 -25 -13 -25
-5 0 -9 11 -9 25 0 14 6 25 14 25 9 0 12 -8 8 -25z m40 16 c-11 -7 -10 -9 3
-15 20 -7 10 -26 -13 -26 -15 0 -15 2 -2 10 10 6 11 10 3 10 -7 0 -13 7 -13
15 0 8 8 15 18 15 13 0 14 -2 4 -9z m159 0 c-9 -6 -10 -11 -2 -15 17 -11 13
-26 -6 -26 -14 0 -15 2 -5 9 11 7 10 9 -3 15 -20 7 -10 26 13 26 13 0 14 -2 3
-9z m59 -6 c0 -8 -8 -15 -17 -16 -15 0 -15 -2 2 -9 19 -8 19 -9 -2 -9 -22 -1
-32 26 -16 42 12 13 33 7 33 -8z m218 -12 c2 -13 -1 -23 -7 -23 -5 0 -11 10
-14 23 -4 22 -4 22 -15 -3 l-11 -25 0 28 c-1 24 3 28 22 25 14 -2 23 -11 25
-25z m165 15 c-6 -7 -13 -20 -16 -28 -3 -9 -6 -3 -6 13 -1 19 4 27 15 27 12 0
14 -4 7 -12z m24 -25 c-3 -10 -5 -4 -5 12 0 17 2 24 5 18 2 -7 2 -21 0 -30z
m43 20 c0 9 4 17 9 17 11 0 2 -38 -11 -46 -12 -7 -28 14 -28 36 1 11 4 10 15
-4 13 -17 15 -18 15 -3z m68 0 c2 -7 -5 -13 -15 -14 -16 0 -16 -1 2 -9 19 -8
19 -9 -2 -9 -25 -1 -37 13 -29 35 7 18 37 15 44 -3z m202 7 c-9 -5 -9 -9 -1
-14 19 -12 12 -26 -11 -25 -20 1 -20 2 -4 6 14 4 15 7 6 13 -7 4 -21 5 -32 2
-15 -4 -17 -7 -6 -13 9 -6 7 -9 -9 -9 -16 0 -23 6 -23 18 0 26 5 29 51 29 23
0 35 -3 29 -7z m818 -2 c8 -8 15 -8 29 3 16 13 17 12 4 -3 -17 -22 -35 -23
-51 -3 -15 18 1 20 18 3z m-1818 -263 c10 0 15 -11 16 -35 1 -26 1 -28 -3 -7
-2 15 -10 27 -18 27 -8 0 -16 -12 -18 -27 -2 -16 -4 -3 -5 27 0 30 3 46 6 35
4 -11 14 -20 22 -20z m500 -13 c0 -43 -2 -48 -24 -50 -17 -1 -27 5 -31 19 -8
24 12 52 32 45 8 -3 13 2 13 14 0 11 2 20 5 20 3 0 5 -22 5 -48z m480 -1 c0
-43 -2 -48 -21 -47 -31 1 -47 30 -29 51 7 9 19 14 27 11 8 -3 13 2 13 14 0 11
2 20 5 20 3 0 5 -22 5 -49z m370 -11 c5 0 14 8 20 18 10 15 11 15 7 -4 -2 -12
0 -29 5 -38 6 -10 5 -16 -2 -16 -6 0 -13 7 -16 15 -8 20 -21 19 -27 -2 -3 -10
-4 7 -4 37 0 31 2 41 4 23 2 -18 8 -33 13 -33z m-1897 43 c-12 -2 -26 -10 -31
-16 -13 -17 4 -57 24 -57 14 0 14 3 4 15 -7 9 -10 18 -7 21 10 10 27 -6 27
-27 0 -13 -7 -19 -23 -19 -29 0 -47 18 -47 45 0 29 19 45 50 44 22 -2 22 -2 3
-6z m473 -13 c8 0 14 -5 14 -11 0 -5 -5 -7 -10 -4 -19 12 -24 -27 -5 -41 17
-13 17 -14 2 -14 -10 0 -20 8 -23 18 -3 9 -9 24 -13 32 -5 8 -3 20 3 26 6 6
13 8 14 3 2 -5 10 -9 18 -9z m295 -24 c12 -13 12 -46 0 -46 -11 0 -21 36 -20
70 1 21 2 21 6 5 3 -11 9 -24 14 -29z m49 12 c0 -32 -14 -67 -23 -58 -3 3 -8
21 -11 40 -7 35 -7 35 8 10 l15 -25 1 33 c0 17 2 32 5 32 3 0 5 -15 5 -32z
m287 -15 c-3 -10 -5 -2 -5 17 0 19 2 27 5 18 2 -10 2 -26 0 -35z m171 40 c-23
-4 -28 -9 -28 -33 0 -31 13 -45 31 -34 8 4 7 9 -2 15 -7 4 -10 11 -7 14 11 11
28 -5 28 -26 0 -13 -7 -19 -23 -19 -29 0 -47 18 -47 45 0 29 19 45 50 44 25
-2 25 -2 -2 -6z m400 -76 c24 -4 24 -4 -5 -6 l-33 -1 2 48 1 47 4 -42 c4 -36
7 -42 31 -46z m309 36 c-3 -10 -5 -2 -5 17 0 19 2 27 5 18 2 -10 2 -26 0 -35z
m-1924 -30 c7 2 15 17 18 33 5 29 5 29 10 -7 4 -34 3 -36 -23 -37 -26 -1 -28
2 -26 36 l1 37 4 -33 c3 -20 9 -32 16 -29z m105 35 c2 -11 -5 -18 -20 -20
l-23 -5 25 -11 25 -12 -25 3 c-26 2 -37 25 -26 53 8 20 40 14 44 -8z m82 12
c0 -5 -3 -9 -7 -9 -26 4 -35 -3 -15 -12 27 -10 25 -34 -4 -35 -15 -1 -16 0 -1
3 21 5 23 23 3 23 -18 0 -29 16 -21 30 3 6 15 10 26 10 10 0 19 -4 19 -10z
m80 0 c0 -5 -3 -9 -7 -9 -26 4 -35 -3 -15 -11 32 -13 29 -40 -5 -39 -24 2 -25
2 -5 6 27 5 29 23 2 23 -19 0 -27 20 -13 33 10 11 43 8 43 -3z m318 -12 c2
-11 -5 -18 -20 -20 l-23 -5 25 -11 c23 -10 23 -11 4 -11 -30 -1 -44 19 -33 47
10 27 42 27 47 0z m241 5 c11 -21 -3 -53 -24 -53 -21 0 -35 31 -24 52 12 23
35 23 48 1z m88 0 c3 -7 -3 -9 -16 -6 -16 4 -21 1 -21 -15 0 -11 6 -23 13 -25
6 -3 -1 -6 -18 -6 -21 -1 -26 2 -16 8 9 6 11 18 7 34 -5 23 -3 26 21 24 14 -1
28 -8 30 -14z m392 -2 c13 -24 -9 -57 -33 -48 -16 6 -22 47 -9 60 12 13 32 7
42 -12z m80 -3 c15 -40 -27 -67 -48 -31 -11 21 3 53 25 53 8 0 18 -10 23 -22z
m294 -35 c7 2 15 17 18 33 5 29 5 29 10 -7 4 -34 3 -36 -23 -37 -26 -1 -28 2
-26 36 l1 37 4 -33 c3 -20 9 -32 16 -29z m107 47 c12 -8 9 -10 -12 -10 -35 0
-38 -27 -5 -40 l22 -9 -22 0 c-31 -1 -48 33 -27 53 18 18 24 19 44 6z m-1520
-169 c0 -43 -2 -48 -21 -47 -31 1 -47 30 -29 51 7 9 19 14 27 11 8 -3 13 2 13
14 0 11 2 20 5 20 3 0 5 -22 5 -49z m-313 23 c3 -8 1 -20 -5 -26 -8 -8 -8 -17
-1 -30 6 -10 6 -18 0 -18 -5 0 -11 7 -15 15 -3 8 -10 15 -16 15 -5 0 -10 -7
-10 -15 0 -8 -4 -15 -9 -15 -5 0 -9 20 -8 45 2 42 4 45 30 45 16 0 30 -7 34
-16z m557 -9 c8 -30 -8 -65 -29 -65 -14 0 -33 26 -33 45 0 45 52 61 62 20z
m-489 -30 c0 -23 -4 -30 -20 -30 -21 0 -31 25 -21 51 11 28 41 12 41 -21z m58
-22 c7 2 15 17 18 33 5 29 5 29 10 -7 4 -34 3 -36 -23 -37 -26 -1 -28 2 -26
36 l1 37 4 -33 c3 -20 9 -32 16 -29z m103 17 c1 -26 1 -28 -3 -7 -2 15 -10 27
-18 27 -8 0 -16 -12 -18 -27 -3 -23 -4 -22 -6 8 -1 32 2 36 22 35 18 -1 22 -7
23 -36z m-238 -197 c-10 -2 -28 -2 -40 0 -13 2 -5 4 17 4 22 1 32 -1 23 -4z
m160 0 c-10 -2 -28 -2 -40 0 -13 2 -5 4 17 4 22 1 32 -1 23 -4z m160 0 c-10
-2 -28 -2 -40 0 -13 2 -5 4 17 4 22 1 32 -1 23 -4z m160 0 c-10 -2 -28 -2 -40
0 -13 2 -5 4 17 4 22 1 32 -1 23 -4z m160 0 c-10 -2 -28 -2 -40 0 -13 2 -5 4
17 4 22 1 32 -1 23 -4z m-650 -70 c-34 -5 -38 -32 -5 -34 l22 -2 -22 -4 c-32
-6 -29 -31 5 -36 25 -4 25 -4 -5 -6 -33 -1 -33 0 -33 44 0 44 0 45 33 44 30
-2 30 -2 5 -6z m158 -13 c8 0 14 -4 14 -10 0 -5 -7 -10 -15 -10 -21 0 -19 -27
3 -39 16 -10 16 -10 -1 -11 -10 0 -20 8 -23 18 -3 9 -9 24 -13 32 -5 8 -3 20
3 26 6 6 13 8 14 3 2 -5 10 -9 18 -9z m-69 -40 c1 -34 1 -34 -5 -5 -4 17 -12
30 -17 30 -5 0 -13 -13 -16 -30 -7 -30 -7 -30 -8 6 -1 32 2 36 22 35 18 -1 22
-7 24 -36z m161 18 c2 -11 -5 -18 -20 -20 l-23 -5 25 -11 c23 -10 23 -11 4
-11 -30 -1 -44 19 -33 47 10 27 42 27 47 0z m52 -7 c0 -16 6 -32 13 -34 6 -3
-1 -6 -18 -6 -21 -1 -26 2 -16 8 9 6 11 18 7 35 -4 15 -2 26 4 26 5 0 10 -13
10 -29z m38 11 c2 -7 -2 -10 -12 -6 -9 3 -16 11 -16 16 0 13 23 5 28 -10z
m152 -28 c0 -29 -5 -44 -16 -48 -23 -9 -34 -7 -34 4 0 6 9 10 20 10 11 0 20 4
20 9 0 5 -7 8 -16 7 -9 0 -21 6 -27 16 -14 21 6 47 34 45 15 -1 19 -9 19 -43z
m53 -11 c7 2 15 17 18 33 5 29 5 29 10 -7 4 -34 3 -36 -23 -37 -26 -1 -28 2
-26 36 l1 37 4 -33 c3 -20 9 -32 16 -29z m105 35 c2 -11 -5 -18 -20 -20 l-23
-5 25 -11 25 -12 -25 3 c-26 2 -37 25 -26 53 8 20 40 14 44 -8z m82 12 c0 -5
-3 -9 -7 -9 -26 4 -35 -3 -15 -12 27 -10 25 -34 -4 -35 -15 -1 -16 0 -1 3 21
5 23 23 3 23 -18 0 -29 16 -21 30 3 6 15 10 26 10 10 0 19 -4 19 -10z m80 0
c0 -5 -3 -9 -7 -9 -26 4 -35 -3 -15 -11 32 -13 29 -40 -5 -39 -24 2 -25 2 -5
6 27 5 29 23 2 23 -19 0 -27 20 -13 33 10 11 43 8 43 -3z m226 2 c6 -4 13 -19
16 -34 4 -24 2 -26 -26 -25 -38 2 -42 28 -6 38 16 4 19 7 8 8 -10 1 -18 6 -18
11 0 12 11 13 26 2z m-1040 -160 c6 -4 13 -19 16 -34 4 -24 2 -26 -26 -25 -38
2 -42 28 -6 38 21 6 11 14 -13 10 -5 -1 -6 3 -2 9 7 12 16 12 31 2z m92 -69
c-10 -2 -28 -2 -40 0 -13 2 -5 4 17 4 22 1 32 -1 23 -4z m160 0 c-10 -2 -28
-2 -40 0 -13 2 -5 4 17 4 22 1 32 -1 23 -4z m160 0 c-10 -2 -28 -2 -40 0 -13
2 -5 4 17 4 22 1 32 -1 23 -4z m160 0 c-10 -2 -28 -2 -40 0 -13 2 -5 4 17 4
22 1 32 -1 23 -4z m-570 -70 c-34 -5 -38 -32 -5 -34 l22 -2 -22 -4 c-32 -6
-29 -31 5 -36 25 -4 25 -4 -5 -6 -33 -1 -33 0 -33 44 0 44 0 45 33 44 30 -2
30 -2 5 -6z m158 -13 c8 0 14 -4 14 -10 0 -5 -7 -10 -15 -10 -21 0 -19 -27 3
-39 16 -10 16 -10 -1 -11 -10 0 -20 8 -23 18 -3 9 -9 24 -13 32 -5 8 -3 20 3
26 6 6 13 8 14 3 2 -5 10 -9 18 -9z m-69 -40 c1 -34 1 -34 -5 -5 -4 17 -12 30
-17 30 -5 0 -13 -13 -16 -30 -7 -30 -7 -30 -8 6 -1 32 2 36 22 35 18 -1 22 -7
24 -36z m161 18 c2 -11 -5 -18 -20 -20 l-23 -5 25 -11 c23 -10 23 -11 4 -11
-30 -1 -44 19 -33 47 10 27 42 27 47 0z m52 -7 c0 -16 6 -32 13 -34 6 -3 -1
-6 -18 -6 -21 -1 -26 2 -16 8 9 6 11 18 7 35 -4 15 -2 26 4 26 5 0 10 -13 10
-29z m38 11 c2 -7 -2 -10 -12 -6 -9 3 -16 11 -16 16 0 13 23 5 28 -10z m152
-28 c0 -29 -5 -44 -16 -48 -23 -9 -34 -7 -34 4 0 6 9 10 20 10 11 0 20 4 20 9
0 5 -7 8 -16 7 -9 0 -21 6 -27 16 -14 21 6 47 34 45 15 -1 19 -9 19 -43z m53
-11 c7 2 15 17 18 33 5 29 5 29 10 -7 4 -34 3 -36 -23 -37 -26 -1 -28 2 -26
36 l1 37 4 -33 c3 -20 9 -32 16 -29z m105 35 c2 -11 -5 -18 -20 -20 l-23 -5
25 -11 25 -12 -25 3 c-26 2 -37 25 -26 53 8 20 40 14 44 -8z m82 12 c0 -5 -3
-9 -7 -9 -26 4 -35 -3 -15 -12 27 -10 25 -34 -4 -35 -15 -1 -16 0 -1 3 21 5
23 23 3 23 -18 0 -29 16 -21 30 3 6 15 10 26 10 10 0 19 -4 19 -10z m80 0 c0
-5 -3 -9 -7 -9 -26 4 -35 -3 -15 -11 32 -13 29 -40 -5 -39 -24 2 -25 2 -5 6
27 5 29 23 2 23 -19 0 -27 20 -13 33 10 11 43 8 43 -3z m238 -12 c2 -11 -5
-18 -20 -20 l-23 -5 25 -11 c24 -10 24 -11 3 -11 -28 -1 -45 27 -31 52 11 22
41 19 46 -5z m-1052 -146 c6 -4 13 -19 16 -34 4 -24 2 -26 -26 -25 -38 2 -42
28 -6 38 21 6 11 14 -13 10 -5 -1 -6 3 -2 9 7 12 16 12 31 2z m412 -14 c2 -11
-5 -18 -20 -20 l-23 -5 25 -11 c24 -10 24 -11 3 -11 -28 -1 -45 27 -31 52 11
22 41 19 46 -5z m-320 -55 c-10 -2 -28 -2 -40 0 -13 2 -5 4 17 4 22 1 32 -1
23 -4z m160 0 c-10 -2 -28 -2 -40 0 -13 2 -5 4 17 4 22 1 32 -1 23 -4z m240 0
c-10 -2 -28 -2 -40 0 -13 2 -5 4 17 4 22 1 32 -1 23 -4z m552 -63 c0 -5 -4
-10 -10 -10 -5 0 -10 5 -10 10 0 6 5 10 10 10 6 0 10 -4 10 -10z m-1042 -7
c-34 -5 -38 -32 -5 -34 l22 -2 -22 -4 c-32 -6 -29 -31 5 -36 25 -4 25 -4 -5
-6 -33 -1 -33 0 -33 44 0 44 0 45 33 44 30 -2 30 -2 5 -6z m158 -13 c8 0 14
-4 14 -10 0 -5 -7 -10 -15 -10 -21 0 -19 -27 3 -39 16 -10 16 -10 -1 -11 -10
0 -20 8 -23 18 -3 9 -9 24 -13 32 -5 8 -3 20 3 26 6 6 13 8 14 3 2 -5 10 -9
18 -9z m-69 -40 c1 -34 1 -34 -5 -5 -4 17 -12 30 -17 30 -5 0 -13 -13 -16 -30
-7 -30 -7 -30 -8 6 -1 32 2 36 22 35 18 -1 22 -7 24 -36z m161 18 c2 -11 -5
-18 -20 -20 l-23 -5 25 -11 c23 -10 23 -11 4 -11 -30 -1 -44 19 -33 47 10 27
42 27 47 0z m52 -7 c0 -16 6 -32 13 -34 6 -3 -1 -6 -18 -6 -21 -1 -26 2 -16 8
9 6 11 18 7 35 -4 15 -2 26 4 26 5 0 10 -13 10 -29z m38 11 c2 -7 -2 -10 -12
-6 -9 3 -16 11 -16 16 0 13 23 5 28 -10z m152 -28 c0 -29 -5 -44 -16 -48 -23
-9 -34 -7 -34 4 0 6 9 10 20 10 11 0 20 4 20 9 0 5 -7 8 -16 7 -9 0 -21 6 -27
16 -14 21 6 47 34 45 15 -1 19 -9 19 -43z m53 -11 c7 2 15 17 18 33 5 29 5 29
10 -7 4 -34 3 -36 -23 -37 -26 -1 -28 2 -26 36 l1 37 4 -33 c3 -20 9 -32 16
-29z m105 35 c2 -11 -5 -18 -20 -20 l-23 -5 25 -11 25 -12 -25 3 c-26 2 -37
25 -26 53 8 20 40 14 44 -8z m82 12 c0 -5 -3 -9 -7 -9 -26 4 -35 -3 -15 -12
27 -10 25 -34 -4 -35 -15 -1 -16 0 -1 3 21 5 23 23 3 23 -18 0 -29 16 -21 30
3 6 15 10 26 10 10 0 19 -4 19 -10z m80 0 c0 -5 -3 -9 -7 -9 -26 4 -35 -3 -15
-11 32 -13 29 -40 -5 -39 -24 2 -25 2 -5 6 27 5 29 23 2 23 -19 0 -27 20 -13
33 10 11 43 8 43 -3z m229 -20 c1 -14 8 -28 15 -32 6 -4 -7 -7 -29 -7 -22 1
-32 3 -22 6 10 3 17 14 17 29 0 14 -4 22 -10 19 -5 -3 -10 -1 -10 5 0 23 35 4
39 -20z m-1031 -317 c-10 -2 -28 -2 -40 0 -13 2 -5 4 17 4 22 1 32 -1 23 -4z
m80 0 c-10 -2 -28 -2 -40 0 -13 2 -5 4 17 4 22 1 32 -1 23 -4z m80 0 c-10 -2
-28 -2 -40 0 -13 2 -5 4 17 4 22 1 32 -1 23 -4z m80 0 c-10 -2 -28 -2 -40 0
-13 2 -5 4 17 4 22 1 32 -1 23 -4z m80 0 c-10 -2 -28 -2 -40 0 -13 2 -5 4 17
4 22 1 32 -1 23 -4z m80 0 c-10 -2 -28 -2 -40 0 -13 2 -5 4 17 4 22 1 32 -1
23 -4z m80 0 c-10 -2 -28 -2 -40 0 -13 2 -5 4 17 4 22 1 32 -1 23 -4z m80 0
c-10 -2 -28 -2 -40 0 -13 2 -5 4 17 4 22 1 32 -1 23 -4z m80 0 c-10 -2 -28 -2
-40 0 -13 2 -5 4 17 4 22 1 32 -1 23 -4z m-661 -190 c-2 -21 -4 -6 -4 32 0 39
2 55 4 38 2 -18 2 -50 0 -70z m640 0 c-2 -21 -4 -6 -4 32 0 39 2 55 4 38 2
-18 2 -50 0 -70z m-640 -160 c-2 -21 -4 -6 -4 32 0 39 2 55 4 38 2 -18 2 -50
0 -70z m0 -160 c-2 -21 -4 -6 -4 32 0 39 2 55 4 38 2 -18 2 -50 0 -70z m0
-160 c-2 -21 -4 -6 -4 32 0 39 2 55 4 38 2 -18 2 -50 0 -70z m21 -130 c-10 -2
-28 -2 -40 0 -13 2 -5 4 17 4 22 1 32 -1 23 -4z m-12 -461 c6 -4 13 -19 16
-34 4 -24 2 -26 -26 -25 -38 2 -42 28 -6 38 21 6 11 14 -13 10 -5 -1 -6 3 -2
9 7 12 16 12 31 2z m412 -15 c2 -10 -5 -17 -20 -19 l-23 -5 25 -11 c24 -10 24
-11 3 -11 -31 -1 -48 33 -27 54 19 18 38 15 42 -8z m-320 -54 c-10 -2 -28 -2
-40 0 -13 2 -5 4 17 4 22 1 32 -1 23 -4z m160 0 c-10 -2 -28 -2 -40 0 -13 2
-5 4 17 4 22 1 32 -1 23 -4z m240 0 c-10 -2 -28 -2 -40 0 -13 2 -5 4 17 4 22
1 32 -1 23 -4z m-490 -70 c-34 -5 -38 -32 -5 -34 l22 -2 -22 -4 c-32 -6 -29
-31 5 -36 25 -4 25 -4 -5 -6 -33 -1 -33 0 -33 44 0 44 0 45 33 44 30 -2 30 -2
5 -6z m158 -13 c8 0 14 -4 14 -10 0 -5 -7 -10 -15 -10 -21 0 -19 -27 3 -39 16
-10 16 -10 -1 -11 -10 0 -20 8 -23 18 -3 9 -9 24 -13 32 -5 8 -3 20 3 26 6 6
13 8 14 3 2 -5 10 -9 18 -9z m880 0 c8 0 14 -4 14 -10 0 -5 -7 -10 -15 -10
-21 0 -19 -27 3 -40 16 -10 15 -10 -3 -8 -11 2 -21 12 -24 23 -2 11 -8 23 -14
26 -6 5 -5 12 4 22 8 8 16 11 17 6 2 -5 10 -9 18 -9z m-949 -40 c1 -34 1 -34
-5 -5 -4 17 -12 30 -17 30 -5 0 -13 -13 -16 -30 -7 -30 -7 -30 -8 6 -1 32 2
36 22 35 18 -1 22 -7 24 -36z m161 18 c2 -11 -5 -18 -20 -20 l-23 -5 25 -11
c23 -10 23 -11 4 -11 -30 -1 -44 19 -33 47 10 27 42 27 47 0z m52 -7 c0 -16 6
-32 13 -34 6 -3 -1 -6 -18 -6 -21 -1 -26 2 -16 8 9 6 11 18 7 35 -4 15 -2 26
4 26 5 0 10 -13 10 -29z m38 11 c2 -7 -2 -10 -12 -6 -9 3 -16 11 -16 16 0 13
23 5 28 -10z m152 -28 c0 -29 -5 -44 -16 -48 -23 -9 -34 -7 -34 4 0 6 9 10 20
10 11 0 20 4 20 9 0 5 -7 8 -16 7 -9 0 -21 6 -27 16 -14 21 6 47 34 45 15 -1
19 -9 19 -43z m53 -11 c7 2 15 17 18 33 5 29 5 29 10 -7 4 -34 3 -36 -23 -37
-26 -1 -28 2 -26 36 l1 37 4 -33 c3 -20 9 -32 16 -29z m105 35 c2 -11 -5 -18
-20 -20 l-23 -5 25 -11 25 -12 -25 3 c-26 2 -37 25 -26 53 8 20 40 14 44 -8z
m82 12 c0 -5 -3 -9 -7 -9 -26 4 -35 -3 -15 -12 27 -10 25 -34 -4 -35 -15 -1
-16 0 -1 3 21 5 23 23 3 23 -18 0 -29 16 -21 30 3 6 15 10 26 10 10 0 19 -4
19 -10z m80 0 c0 -5 -3 -9 -7 -9 -26 4 -35 -3 -15 -11 32 -13 29 -40 -5 -39
-24 2 -25 2 -5 6 27 5 29 23 2 23 -19 0 -27 20 -13 33 10 11 43 8 43 -3z
m-574 -150 c8 0 14 -4 14 -10 0 -5 -7 -10 -15 -10 -23 0 -18 -30 8 -40 l22 -9
-23 0 c-13 -1 -25 6 -28 17 -3 9 -9 24 -13 32 -5 8 -3 20 3 26 6 6 13 8 14 3
2 -5 10 -9 18 -9z m-240 -8 c6 -4 13 -19 16 -34 4 -24 2 -26 -26 -25 -38 2
-42 28 -6 38 21 6 11 14 -13 10 -5 -1 -6 3 -2 9 7 12 16 12 31 2z m332 -14 c2
-11 -5 -18 -20 -20 l-23 -5 25 -11 c23 -10 23 -11 4 -11 -30 -1 -44 19 -33 47
10 27 42 27 47 0z m-240 -55 c-10 -2 -28 -2 -40 0 -13 2 -5 4 17 4 22 1 32 -1
23 -4z m320 0 c-10 -2 -28 -2 -40 0 -13 2 -5 4 17 4 22 1 32 -1 23 -4z m-410
-70 c-34 -5 -38 -32 -5 -34 l22 -2 -22 -4 c-32 -6 -29 -31 5 -36 25 -4 25 -4
-5 -6 -33 -1 -33 0 -33 44 0 44 0 45 33 44 30 -2 30 -2 5 -6z m158 -13 c8 0
14 -4 14 -10 0 -5 -7 -10 -15 -10 -21 0 -19 -27 3 -39 16 -10 16 -10 -1 -11
-10 0 -20 8 -23 18 -3 9 -9 24 -13 32 -5 8 -3 20 3 26 6 6 13 8 14 3 2 -5 10
-9 18 -9z m-69 -40 c1 -34 1 -34 -5 -5 -4 17 -12 30 -17 30 -5 0 -13 -13 -16
-30 -7 -30 -7 -30 -8 6 -1 32 2 36 22 35 18 -1 22 -7 24 -36z m161 18 c2 -11
-5 -18 -20 -20 l-23 -5 25 -11 c23 -10 23 -11 4 -11 -30 -1 -44 19 -33 47 10
27 42 27 47 0z m52 -7 c0 -16 6 -32 13 -34 6 -3 -1 -6 -18 -6 -21 -1 -26 2
-16 8 9 6 11 18 7 35 -4 15 -2 26 4 26 5 0 10 -13 10 -29z m38 11 c2 -7 -2
-10 -12 -6 -9 3 -16 11 -16 16 0 13 23 5 28 -10z m152 -28 c0 -29 -5 -44 -16
-48 -23 -9 -34 -7 -34 4 0 6 9 10 20 10 11 0 20 4 20 9 0 5 -7 8 -16 7 -9 0
-21 6 -27 16 -14 21 6 47 34 45 15 -1 19 -9 19 -43z m53 -11 c7 2 15 17 18 33
5 29 5 29 10 -7 4 -34 3 -36 -23 -37 -26 -1 -28 2 -26 36 l1 37 4 -33 c3 -20
9 -32 16 -29z m105 35 c2 -11 -5 -18 -20 -20 l-23 -5 25 -11 25 -12 -25 3
c-26 2 -37 25 -26 53 8 20 40 14 44 -8z m82 12 c0 -5 -3 -9 -7 -9 -26 4 -35
-3 -15 -12 27 -10 25 -34 -4 -35 -15 -1 -16 0 -1 3 21 5 23 23 3 23 -18 0 -29
16 -21 30 3 6 15 10 26 10 10 0 19 -4 19 -10z m80 0 c0 -5 -3 -9 -7 -9 -26 4
-35 -3 -15 -11 32 -13 29 -40 -5 -39 -24 2 -25 2 -5 6 27 5 29 23 2 23 -19 0
-27 20 -13 33 10 11 43 8 43 -3z m219 -27 l-2 -38 -7 35 -7 35 -2 -32 c-1 -44
-21 -42 -21 2 0 28 4 35 20 35 17 0 20 -6 19 -37z m31 -4 c0 -16 -4 -29 -10
-29 -5 0 -10 16 -10 36 0 21 4 33 10 29 6 -3 10 -19 10 -36z m-1052 -306 c-10
-2 -28 -2 -40 0 -13 2 -5 4 17 4 22 1 32 -1 23 -4z m80 0 c-10 -2 -28 -2 -40
0 -13 2 -5 4 17 4 22 1 32 -1 23 -4z m80 0 c-10 -2 -28 -2 -40 0 -13 2 -5 4
17 4 22 1 32 -1 23 -4z m80 0 c-10 -2 -28 -2 -40 0 -13 2 -5 4 17 4 22 1 32
-1 23 -4z m80 0 c-10 -2 -28 -2 -40 0 -13 2 -5 4 17 4 22 1 32 -1 23 -4z m80
0 c-10 -2 -28 -2 -40 0 -13 2 -5 4 17 4 22 1 32 -1 23 -4z m80 0 c-10 -2 -28
-2 -40 0 -13 2 -5 4 17 4 22 1 32 -1 23 -4z m80 0 c-10 -2 -28 -2 -40 0 -13 2
-5 4 17 4 22 1 32 -1 23 -4z m80 0 c-10 -2 -28 -2 -40 0 -13 2 -5 4 17 4 22 1
32 -1 23 -4z m-661 -190 c-2 -21 -4 -6 -4 32 0 39 2 55 4 38 2 -18 2 -50 0
-70z m640 0 c-2 -21 -4 -6 -4 32 0 39 2 55 4 38 2 -18 2 -50 0 -70z m-640
-160 c-2 -21 -4 -6 -4 32 0 39 2 55 4 38 2 -18 2 -50 0 -70z m669 52 c3 -14 4
-32 0 -40 -14 -39 -66 -23 -66 19 0 47 55 64 66 21z m-669 -212 c-2 -21 -4 -6
-4 32 0 39 2 55 4 38 2 -18 2 -50 0 -70z m0 -160 c-2 -21 -4 -6 -4 32 0 39 2
55 4 38 2 -18 2 -50 0 -70z m21 -130 c-10 -2 -28 -2 -40 0 -13 2 -5 4 17 4 22
1 32 -1 23 -4z m228 -453 c8 0 14 -4 14 -10 0 -5 -7 -10 -15 -10 -23 0 -18
-30 8 -40 l22 -9 -23 0 c-13 -1 -25 6 -28 17 -3 9 -9 24 -13 32 -5 8 -3 20 3
26 6 6 13 8 14 3 2 -5 10 -9 18 -9z m-240 -8 c6 -4 13 -19 16 -34 4 -24 2 -26
-26 -25 -38 2 -42 28 -6 38 21 6 11 14 -13 10 -5 -1 -6 3 -2 9 7 12 16 12 31
2z m332 -15 c2 -10 -5 -17 -20 -19 l-23 -5 25 -11 c22 -9 23 -11 5 -11 -27 -1
-45 17 -37 38 12 33 44 39 50 8z m-240 -54 c-10 -2 -28 -2 -40 0 -13 2 -5 4
17 4 22 1 32 -1 23 -4z m320 0 c-10 -2 -28 -2 -40 0 -13 2 -5 4 17 4 22 1 32
-1 23 -4z m-410 -70 c-34 -5 -38 -32 -5 -34 l22 -2 -22 -4 c-32 -6 -29 -31 5
-36 25 -4 25 -4 -5 -6 -33 -1 -33 0 -33 44 0 44 0 45 33 44 30 -2 30 -2 5 -6z
m158 -13 c8 0 14 -4 14 -10 0 -5 -7 -10 -15 -10 -21 0 -19 -27 3 -39 16 -10
16 -10 -1 -11 -10 0 -20 8 -23 18 -3 9 -9 24 -13 32 -5 8 -3 20 3 26 6 6 13 8
14 3 2 -5 10 -9 18 -9z m-69 -40 c1 -34 1 -34 -5 -5 -4 17 -12 30 -17 30 -5 0
-13 -13 -16 -30 -7 -30 -7 -30 -8 6 -1 32 2 36 22 35 18 -1 22 -7 24 -36z
m161 18 c2 -11 -5 -18 -20 -20 l-23 -5 25 -11 c23 -10 23 -11 4 -11 -30 -1
-44 19 -33 47 10 27 42 27 47 0z m52 -7 c0 -16 6 -32 13 -34 6 -3 -1 -6 -18
-6 -21 -1 -26 2 -16 8 9 6 11 18 7 35 -4 15 -2 26 4 26 5 0 10 -13 10 -29z
m38 11 c2 -7 -2 -10 -12 -6 -9 3 -16 11 -16 16 0 13 23 5 28 -10z m152 -28 c0
-29 -5 -44 -16 -48 -23 -9 -34 -7 -34 4 0 6 9 10 20 10 11 0 20 4 20 9 0 5 -7
8 -16 7 -9 0 -21 6 -27 16 -14 21 6 47 34 45 15 -1 19 -9 19 -43z m53 -11 c7
2 15 17 18 33 5 29 5 29 10 -7 4 -34 3 -36 -23 -37 -26 -1 -28 2 -26 36 l1 37
4 -33 c3 -20 9 -32 16 -29z m105 35 c2 -11 -5 -18 -20 -20 l-23 -5 25 -11 25
-12 -25 3 c-26 2 -37 25 -26 53 8 20 40 14 44 -8z m82 12 c0 -5 -3 -9 -7 -9
-26 4 -35 -3 -15 -12 27 -10 25 -34 -4 -35 -15 -1 -16 0 -1 3 21 5 23 23 3 23
-18 0 -29 16 -21 30 3 6 15 10 26 10 10 0 19 -4 19 -10z m80 0 c0 -5 -3 -9 -7
-9 -26 4 -35 -3 -15 -11 32 -13 29 -40 -5 -39 -24 2 -25 2 -5 6 27 5 29 23 2
23 -19 0 -27 20 -13 33 10 11 43 8 43 -3z"/>
<path d="M183 6023 c15 -2 37 -2 50 0 12 2 0 4 -28 4 -27 0 -38 -2 -22 -4z"/>
<path d="M160 6000 c0 -5 3 -9 8 -9 19 3 25 -2 12 -11 -10 -6 -11 -10 -2 -10
6 0 12 -5 12 -11 0 -6 -7 -9 -15 -5 -8 3 -15 1 -15 -4 0 -6 20 -10 45 -10 45
0 45 0 45 35 0 35 0 35 -45 35 -25 0 -45 -4 -45 -10z m80 -31 c0 -6 -4 -7 -10
-4 -5 3 -10 11 -10 16 0 6 5 7 10 4 6 -3 10 -11 10 -16z"/>
<path d="M1050 5985 c0 -28 24 -34 34 -9 8 20 -1 34 -20 34 -8 0 -14 -10 -14
-25z"/>
<path d="M1240 5986 c0 -17 5 -26 16 -26 10 0 14 7 12 22 -5 32 -28 35 -28 4z"/>
<path d="M1520 5985 c0 -20 4 -26 18 -23 9 2 17 12 17 23 0 11 -8 21 -17 23
-14 3 -18 -3 -18 -23z"/>
<path d="M1120 5689 c0 -24 23 -21 28 4 2 10 -3 17 -12 17 -10 0 -16 -9 -16
-21z"/>
<path d="M1607 5713 c-11 -10 -8 -43 3 -43 15 0 24 30 13 41 -5 5 -12 6 -16 2z"/>
<path d="M248 5703 c7 -3 16 -2 19 1 4 3 -2 6 -13 5 -11 0 -14 -3 -6 -6z"/>
<path d="M725 5710 c-3 -5 1 -10 10 -10 9 0 13 5 10 10 -3 6 -8 10 -10 10 -2
0 -7 -4 -10 -10z"/>
<path d="M962 5693 c5 -25 28 -28 28 -4 0 12 -6 21 -16 21 -9 0 -14 -7 -12
-17z"/>
<path d="M1442 5694 c4 -21 22 -23 26 -1 2 10 -3 17 -13 17 -10 0 -15 -6 -13
-16z"/>
<path d="M1522 5693 c5 -25 28 -28 28 -4 0 12 -6 21 -16 21 -9 0 -14 -7 -12
-17z"/>
<path d="M400 5529 c0 -24 23 -21 28 4 2 10 -3 17 -12 17 -10 0 -16 -9 -16
-21z"/>
<path d="M80 5560 c0 -13 5 -18 15 -14 8 4 15 12 15 20 0 8 -7 14 -15 14 -8 0
-15 -9 -15 -20z"/>
<path d="M642 5548 c2 -18 8 -33 13 -33 6 0 11 15 13 33 3 24 -1 32 -13 32
-12 0 -16 -8 -13 -32z"/>
<path d="M162 5533 c5 -25 28 -28 28 -4 0 12 -6 21 -16 21 -9 0 -14 -7 -12
-17z"/>
<path d="M325 5230 c-3 -5 1 -10 10 -10 9 0 13 5 10 10 -3 6 -8 10 -10 10 -2
0 -7 -4 -10 -10z"/>
<path d="M560 5209 c0 -24 23 -21 28 4 2 10 -3 17 -12 17 -10 0 -16 -9 -16
-21z"/>
<path d="M728 5223 c7 -3 16 -2 19 1 4 3 -2 6 -13 5 -11 0 -14 -3 -6 -6z"/>
<path d="M1120 5200 c0 -5 4 -10 9 -10 6 0 13 5 16 10 3 6 -1 10 -9 10 -9 0
-16 -4 -16 -10z"/>
<path d="M80 5040 c0 -5 4 -10 9 -10 6 0 13 5 16 10 3 6 -1 10 -9 10 -9 0 -16
-4 -16 -10z"/>
<path d="M325 4910 c-3 -5 1 -10 10 -10 9 0 13 5 10 10 -3 6 -8 10 -10 10 -2
0 -7 -4 -10 -10z"/>
<path d="M560 4889 c0 -24 23 -21 28 4 2 10 -3 17 -12 17 -10 0 -16 -9 -16
-21z"/>
<path d="M728 4903 c7 -3 16 -2 19 1 4 3 -2 6 -13 5 -11 0 -14 -3 -6 -6z"/>
<path d="M1125 4910 c-3 -5 1 -10 10 -10 9 0 13 5 10 10 -3 6 -8 10 -10 10 -2
0 -7 -4 -10 -10z"/>
<path d="M80 4720 c0 -5 4 -10 9 -10 6 0 13 5 16 10 3 6 -1 10 -9 10 -9 0 -16
-4 -16 -10z"/>
<path d="M485 4750 c-3 -5 1 -10 10 -10 9 0 13 5 10 10 -3 6 -8 10 -10 10 -2
0 -7 -4 -10 -10z"/>
<path d="M325 4590 c-3 -5 1 -10 10 -10 9 0 13 5 10 10 -3 6 -8 10 -10 10 -2
0 -7 -4 -10 -10z"/>
<path d="M560 4569 c0 -24 23 -21 28 4 2 10 -3 17 -12 17 -10 0 -16 -9 -16
-21z"/>
<path d="M728 4583 c7 -3 16 -2 19 1 4 3 -2 6 -13 5 -11 0 -14 -3 -6 -6z"/>
<path d="M80 2960 c0 -5 4 -10 9 -10 6 0 13 5 16 10 3 6 -1 10 -9 10 -9 0 -16
-4 -16 -10z"/>
<path d="M485 2990 c-3 -5 1 -10 10 -10 9 0 13 5 10 10 -3 6 -8 10 -10 10 -2
0 -7 -4 -10 -10z"/>
<path d="M325 2830 c-3 -5 1 -10 10 -10 9 0 13 5 10 10 -3 6 -8 10 -10 10 -2
0 -7 -4 -10 -10z"/>
<path d="M560 2809 c0 -24 23 -21 28 4 2 10 -3 17 -12 17 -10 0 -16 -9 -16
-21z"/>
<path d="M728 2823 c7 -3 16 -2 19 1 4 3 -2 6 -13 5 -11 0 -14 -3 -6 -6z"/>
<path d="M80 2640 c0 -5 4 -10 9 -10 6 0 13 5 16 10 3 6 -1 10 -9 10 -9 0 -16
-4 -16 -10z"/>
<path d="M408 2663 c7 -3 16 -2 19 1 4 3 -2 6 -13 5 -11 0 -14 -3 -6 -6z"/>
<path d="M325 2510 c-3 -5 1 -10 10 -10 9 0 13 5 10 10 -3 6 -8 10 -10 10 -2
0 -7 -4 -10 -10z"/>
<path d="M560 2489 c0 -24 23 -21 28 4 2 10 -3 17 -12 17 -10 0 -16 -9 -16
-21z"/>
<path d="M728 2503 c7 -3 16 -2 19 1 4 3 -2 6 -13 5 -11 0 -14 -3 -6 -6z"/>
<path d="M720 1865 c0 -37 22 -49 34 -19 9 23 -2 54 -20 54 -9 0 -14 -11 -14
-35z"/>
<path d="M80 880 c0 -5 4 -10 9 -10 6 0 13 5 16 10 3 6 -1 10 -9 10 -9 0 -16
-4 -16 -10z"/>
<path d="M405 910 c-3 -5 1 -10 10 -10 9 0 13 5 10 10 -3 6 -8 10 -10 10 -2 0
-7 -4 -10 -10z"/>
<path d="M325 750 c-3 -5 1 -10 10 -10 9 0 13 5 10 10 -3 6 -8 10 -10 10 -2 0
-7 -4 -10 -10z"/>
<path d="M560 729 c0 -24 23 -21 28 4 2 10 -3 17 -12 17 -10 0 -16 -9 -16 -21z"/>
<path d="M728 743 c7 -3 16 -2 19 1 4 3 -2 6 -13 5 -11 0 -14 -3 -6 -6z"/>
</g>
</svg>
