<?xml version="1.0" standalone="no"?>
<!DOCTYPE svg PUBLIC "-//W3C//DTD SVG 20010904//EN"
 "http://www.w3.org/TR/2001/REC-SVG-20010904/DTD/svg10.dtd">
<svg version="1.0" xmlns="http://www.w3.org/2000/svg"
 width="1004.000000pt" height="510.000000pt" viewBox="0 0 1004.000000 510.000000"
 preserveAspectRatio="xMidYMid meet">

<g transform="translate(0.000000,510.000000) scale(0.100000,-0.100000)"
fill="#000000" stroke="none">
<path d="M0 2550 l0 -2550 5020 0 5020 0 0 2550 0 2550 -5020 0 -5020 0 0
-2550z m258 2427 l3 -58 -58 3 -58 3 -3 43 c-4 59 10 74 67 70 l46 -3 3 -58z
m2005 2 c22 -2 22 -2 0 -6 -13 -2 -24 -12 -24 -21 -1 -15 -2 -15 -6 1 -2 9
-12 18 -21 18 -15 1 -15 2 1 6 9 2 18 14 18 26 2 22 2 22 6 0 3 -15 12 -23 26
-24z m-1860 24 c-16 -3 -23 -11 -23 -28 0 -19 6 -25 33 -28 26 -4 24 -4 -8 -3
-30 1 -41 6 -43 19 -5 25 16 47 42 46 20 -2 20 -2 -1 -6z m69 -33 c9 -22 13
-40 9 -40 -4 0 -15 18 -24 40 -20 52 -7 52 15 0z m38 9 c0 -39 22 -34 32 7 6
27 6 27 5 -6 -2 -30 -5 -35 -27 -35 -21 0 -26 5 -28 33 -2 18 1 32 7 32 6 0
11 -14 11 -31z m255 -6 c8 -20 13 -38 10 -41 -4 -4 -35 59 -35 73 0 15 12 1
25 -32z m35 7 c0 -42 27 -40 33 3 4 31 4 31 5 -5 2 -34 0 -38 -23 -38 -14 0
-26 3 -26 8 -7 43 -6 62 2 62 5 0 9 -13 9 -30z m215 -16 c14 -34 14 -37 0 -20
-8 11 -15 26 -15 33 0 20 -28 3 -33 -20 -3 -18 -5 -17 -6 6 -1 18 4 27 14 27
8 0 15 5 15 12 0 18 8 6 25 -38z m80 11 c0 -25 -4 -31 -27 -33 -19 -2 -28 2
-33 18 -8 27 12 52 39 48 16 -2 21 -10 21 -33z m185 20 c20 -24 3 -55 -31 -55
-18 0 -28 4 -24 10 4 6 -6 10 -22 9 -25 0 -26 -1 -8 -9 19 -8 19 -9 -2 -9 -17
-1 -23 5 -23 19 0 25 29 38 41 19 6 -11 9 -8 9 9 0 16 6 22 24 22 13 0 29 -7
36 -15z m209 -21 c18 -49 8 -53 -12 -4 -8 22 -12 40 -8 40 4 0 13 -16 20 -36z
m76 1 c0 -25 -4 -30 -27 -33 -26 -3 -28 -1 -28 33 0 34 2 36 28 33 23 -3 27
-8 27 -33z m135 19 c0 -8 4 -13 9 -10 5 3 9 -5 9 -17 0 -15 -7 -23 -19 -24
-15 -1 -19 5 -19 33 0 19 5 34 10 34 6 0 10 -7 10 -16z m208 7 c15 13 16 12 3
-3 -11 -15 -11 -21 0 -35 13 -16 12 -17 -3 -4 -15 11 -21 11 -35 0 -16 -13
-17 -12 -4 4 11 14 11 20 0 35 -13 15 -12 16 4 3 14 -11 20 -11 35 0z m-1317
-20 c-8 -5 -9 -11 -3 -15 5 -3 15 1 22 9 7 8 19 15 26 15 21 0 17 -30 -3 -31
-15 0 -15 -2 2 -9 14 -5 6 -8 -29 -8 -33 0 -45 3 -35 9 10 6 10 9 2 9 -7 0
-13 7 -13 15 0 9 9 15 23 15 16 0 18 -3 8 -9z m91 -16 c-2 -14 -8 -25 -13 -25
-5 0 -9 11 -9 25 0 14 6 25 14 25 9 0 12 -8 8 -25z m40 16 c-11 -7 -10 -9 3
-15 20 -7 10 -26 -13 -26 -15 0 -15 2 -2 10 10 6 11 10 3 10 -7 0 -13 7 -13
15 0 8 8 15 18 15 13 0 14 -2 4 -9z m159 0 c-9 -6 -10 -11 -2 -15 17 -11 13
-26 -6 -26 -14 0 -15 2 -5 9 11 7 10 9 -3 15 -20 7 -10 26 13 26 13 0 14 -2 3
-9z m59 -6 c0 -8 -8 -15 -17 -16 -15 0 -15 -2 2 -9 19 -8 19 -9 -2 -9 -22 -1
-32 26 -16 42 12 13 33 7 33 -8z m218 -12 c2 -13 -1 -23 -7 -23 -5 0 -11 10
-14 23 -4 22 -4 22 -15 -3 l-11 -25 0 28 c-1 24 3 28 22 25 14 -2 23 -11 25
-25z m165 15 c-6 -7 -13 -20 -16 -28 -3 -9 -6 -3 -6 13 -1 19 4 27 15 27 12 0
14 -4 7 -12z m24 -25 c-3 -10 -5 -4 -5 12 0 17 2 24 5 18 2 -7 2 -21 0 -30z
m43 20 c0 9 4 17 9 17 11 0 2 -38 -11 -46 -12 -7 -28 14 -28 36 1 11 4 10 15
-4 13 -17 15 -18 15 -3z m68 0 c2 -7 -5 -13 -15 -14 -16 0 -16 -1 2 -9 19 -8
19 -9 -2 -9 -25 -1 -37 13 -29 35 7 18 37 15 44 -3z m202 7 c-9 -5 -9 -9 -1
-14 19 -12 12 -26 -11 -25 -20 1 -20 2 -4 6 14 4 15 7 6 13 -7 4 -21 5 -32 2
-15 -4 -17 -7 -6 -13 9 -6 7 -9 -9 -9 -16 0 -23 6 -23 18 0 26 5 29 51 29 23
0 35 -3 29 -7z m818 -2 c8 -8 15 -8 29 3 16 13 17 12 4 -3 -17 -22 -35 -23
-51 -3 -15 18 1 20 18 3z m-528 -238 c0 -5 -4 -10 -10 -10 -5 0 -10 5 -10 10
0 6 5 10 10 10 6 0 10 -4 10 -10z m-1863 -22 l10 -23 7 23 c4 12 12 22 17 22
6 0 5 -9 -2 -22 -6 -12 -15 -33 -20 -47 -5 -17 -8 -20 -8 -8 -1 10 -8 31 -16
47 -9 17 -12 30 -7 30 5 0 13 -10 19 -22z m659 2 c8 0 14 -4 14 -10 0 -5 -7
-10 -15 -10 -21 0 -19 -27 3 -39 16 -10 16 -10 -1 -11 -10 0 -20 8 -23 18 -3
9 -9 24 -13 32 -5 8 -3 20 3 26 6 6 13 8 14 3 2 -5 10 -9 18 -9z m560 0 c8 0
14 -4 14 -10 0 -5 -7 -10 -15 -10 -21 0 -19 -27 3 -39 16 -10 16 -10 -1 -11
-10 0 -20 8 -23 18 -3 9 -9 24 -13 32 -5 8 -3 20 3 26 6 6 13 8 14 3 2 -5 10
-9 18 -9z m974 -4 c0 -13 -7 -30 -16 -37 -15 -12 -14 -14 7 -20 21 -6 20 -7
-8 -8 -38 -1 -41 7 -13 32 11 9 20 24 20 33 0 11 -6 15 -20 11 -11 -3 -20 -1
-20 4 0 5 11 9 25 9 20 0 25 -5 25 -24z m44 -6 c-5 -23 -3 -30 10 -30 11 0 16
10 17 33 l2 32 6 -35 c7 -35 1 -76 -7 -52 -2 7 -15 12 -29 12 -19 0 -24 4 -19
16 3 9 6 24 6 35 0 10 4 19 10 19 5 0 7 -13 4 -30z m120 5 c8 -32 -10 -67 -32
-63 -17 3 -28 47 -18 74 9 24 43 16 50 -11z m-2246 -28 c4 -34 -25 -49 -44
-22 -10 13 -10 23 -3 37 15 27 43 18 47 -15z m55 -24 c7 2 15 17 18 33 5 29 5
29 10 -7 4 -34 3 -36 -23 -37 -26 -1 -28 2 -26 36 l1 37 4 -33 c3 -20 9 -32
16 -29z m77 28 c0 -16 6 -32 13 -34 6 -3 -1 -6 -18 -6 -21 -1 -26 2 -16 8 9 6
11 18 7 35 -4 15 -2 26 4 26 5 0 10 -13 10 -29z m38 11 c2 -7 -2 -10 -12 -6
-9 3 -16 11 -16 16 0 13 23 5 28 -10z m131 -19 l-2 -38 -7 35 -7 35 -2 -32
c-1 -40 -21 -44 -21 -5 0 32 7 42 27 42 9 0 13 -12 12 -37z m31 -4 c0 -16 -4
-29 -10 -29 -5 0 -10 16 -10 36 0 21 4 33 10 29 6 -3 10 -19 10 -36z m69 19
c16 -42 -28 -67 -49 -29 -7 15 -6 23 6 35 21 22 33 20 43 -6z m81 12 c0 -5 -3
-9 -7 -9 -26 4 -35 -3 -15 -12 29 -11 24 -33 -9 -36 -22 -1 -22 -1 -1 4 24 5
31 23 8 23 -21 0 -31 21 -15 31 19 12 39 11 39 -1z m247 -7 c3 -7 -3 -9 -16
-6 -16 4 -21 1 -21 -15 0 -11 6 -23 13 -25 6 -3 -1 -6 -18 -6 -21 -1 -26 2
-16 8 9 6 11 18 7 34 -5 23 -3 26 21 24 14 -1 28 -8 30 -14z m71 -5 c2 -11 -5
-18 -20 -20 l-23 -5 25 -11 c24 -10 24 -11 3 -11 -28 -1 -45 27 -31 52 11 22
41 19 46 -5z m82 12 c12 -8 9 -10 -12 -10 -35 0 -38 -26 -5 -40 22 -10 22 -10
-3 -7 -28 2 -41 44 -18 58 17 11 20 11 38 -1z m78 -12 c2 -11 -5 -18 -20 -20
l-23 -5 25 -11 c23 -10 23 -11 4 -11 -32 -1 -48 23 -34 49 13 24 43 23 48 -2z
m79 -18 c1 -34 1 -34 -5 -5 -4 17 -12 30 -17 30 -5 0 -13 -13 -16 -30 -7 -30
-7 -30 -8 6 -1 32 2 36 22 35 18 -1 22 -7 24 -36z m243 30 c0 -5 -10 -10 -22
-11 l-23 0 23 -9 c32 -13 29 -40 -5 -39 -24 2 -25 2 -5 6 27 5 29 23 2 23 -22
0 -28 25 -7 33 21 9 37 7 37 -3z m75 0 c3 -5 -3 -10 -14 -10 -28 0 -27 -28 2
-40 22 -10 22 -10 -3 -7 -18 1 -26 9 -28 26 -5 31 28 55 43 31z m84 -9 c13
-24 -9 -57 -33 -48 -16 6 -22 47 -9 60 12 13 32 7 42 -12z m51 -10 c0 -16 6
-32 13 -34 6 -3 -1 -6 -18 -6 -21 -1 -26 2 -16 8 9 6 11 18 7 35 -4 15 -2 26
4 26 5 0 10 -13 10 -29z m38 11 c2 -7 -2 -10 -12 -6 -9 3 -16 11 -16 16 0 13
23 5 28 -10z m70 -4 c2 -11 -5 -18 -20 -20 l-23 -5 25 -11 c23 -10 23 -11 4
-11 -30 -1 -44 19 -33 47 10 27 42 27 47 0z m151 -8 c1 -14 8 -28 15 -32 6 -4
-7 -7 -29 -7 -22 1 -32 3 -22 6 10 3 17 14 17 29 0 14 -4 22 -10 19 -5 -3 -10
-1 -10 5 0 23 35 4 39 -20z m91 20 c0 -5 -3 -9 -7 -9 -26 4 -35 -3 -15 -11 32
-13 29 -40 -5 -39 -24 2 -25 2 -5 6 27 5 29 23 2 23 -19 0 -27 20 -13 33 10
11 43 8 43 -3z m-1850 -130 c0 -5 -4 -10 -10 -10 -5 0 -10 5 -10 10 0 6 5 10
10 10 6 0 10 -4 10 -10z m150 -25 c10 0 15 -11 16 -35 1 -26 1 -28 -3 -7 -2
15 -10 27 -18 27 -8 0 -16 -12 -18 -27 -2 -16 -4 -3 -5 27 0 30 3 46 6 35 4
-11 14 -20 22 -20z m890 25 c0 -5 -4 -10 -10 -10 -5 0 -10 5 -10 10 0 6 5 10
10 10 6 0 10 -4 10 -10z m-1150 -20 c0 -11 7 -20 15 -20 8 0 15 9 15 21 0 11
4 18 8 15 4 -2 5 -24 3 -48 -3 -26 -6 -34 -9 -20 -4 27 -32 29 -32 2 0 -11 -4
-20 -9 -20 -5 0 -8 20 -7 45 1 43 16 66 16 25z m506 0 c8 0 14 -4 14 -10 0 -5
-7 -10 -15 -10 -21 0 -19 -27 3 -39 16 -10 16 -10 -1 -11 -10 0 -20 8 -23 18
-3 9 -9 24 -13 32 -5 8 -3 20 3 26 6 6 13 8 14 3 2 -5 10 -9 18 -9z m174 11
c0 -5 -9 -7 -20 -4 -28 7 -25 -12 6 -32 20 -13 23 -19 13 -31 -6 -8 -21 -13
-33 -13 -20 2 -20 2 2 6 27 5 28 19 2 35 -29 18 -26 48 5 48 14 0 25 -4 25 -9z
m703 -3 c-28 -13 -30 -28 -4 -21 24 6 37 -26 17 -45 -32 -32 -67 18 -39 57 8
12 22 21 31 20 13 0 12 -3 -5 -11z m101 -13 c8 -30 -8 -65 -30 -65 -15 0 -23
13 -28 47 -8 44 47 61 58 18z m-1374 -24 c0 -16 6 -32 13 -34 6 -3 -4 -5 -23
-5 -19 0 -29 2 -22 5 14 6 16 43 2 43 -5 0 -10 5 -10 10 0 6 9 10 20 10 15 0
20 -7 20 -29z m90 -17 c0 -29 -5 -44 -16 -48 -23 -9 -34 -7 -34 4 0 6 9 10 20
10 11 0 20 4 20 9 0 5 -7 8 -16 7 -9 0 -21 6 -27 16 -14 21 6 47 34 45 15 -1
19 -9 19 -43z m158 23 c2 -10 -5 -17 -20 -19 l-23 -5 25 -11 c22 -9 23 -11 5
-11 -27 -1 -45 17 -37 38 12 33 44 39 50 8z m82 13 c0 -5 -3 -9 -7 -9 -26 4
-35 -3 -15 -11 32 -13 29 -40 -5 -39 -24 2 -25 2 -5 6 27 5 29 23 2 23 -22 0
-28 25 -7 33 21 9 37 7 37 -3z m315 0 c3 -5 -3 -10 -14 -10 -28 0 -27 -28 2
-40 l22 -9 -22 0 c-31 -1 -48 33 -27 53 18 18 30 20 39 6z m84 -9 c13 -24 -9
-57 -33 -48 -16 6 -22 47 -9 60 12 13 32 7 42 -12z m51 -10 c0 -16 6 -32 13
-34 6 -3 -1 -6 -18 -6 -21 -1 -26 2 -16 8 9 6 11 18 7 35 -4 15 -2 26 4 26 5
0 10 -13 10 -29z m38 11 c2 -7 -2 -10 -12 -6 -9 3 -16 11 -16 16 0 13 23 5 28
-10z m70 -4 c2 -11 -5 -18 -20 -20 l-23 -5 25 -11 c23 -10 23 -11 4 -11 -32
-1 -48 23 -34 49 13 24 43 23 48 -2z m151 -8 c1 -14 8 -28 15 -32 6 -4 -7 -7
-29 -7 -22 1 -32 3 -22 6 10 3 17 14 17 29 0 14 -4 22 -10 19 -5 -3 -10 -1
-10 5 0 23 35 4 39 -20z m91 20 c0 -5 -3 -9 -7 -9 -26 4 -35 -3 -15 -11 32
-13 29 -40 -5 -39 -24 2 -25 2 -5 6 27 5 29 23 2 23 -19 0 -27 20 -13 33 10
11 43 8 43 -3z m-430 -180 c5 0 14 8 20 18 10 15 11 15 7 -4 -2 -12 0 -29 5
-38 6 -10 5 -16 -2 -16 -6 0 -13 7 -16 15 -8 20 -21 19 -27 -2 -3 -10 -4 7 -4
37 0 31 2 41 4 23 2 -18 8 -33 13 -33z m900 50 c0 -5 -4 -10 -10 -10 -5 0 -10
5 -10 10 0 6 5 10 10 10 6 0 10 -4 10 -10z m-1665 -30 c0 -18 -6 -26 -22 -28
-12 -2 -24 -11 -26 -20 -3 -9 -5 5 -6 31 -1 47 0 48 27 45 21 -2 27 -8 27 -28z
m1101 10 c8 0 14 -5 14 -11 0 -6 -7 -9 -15 -5 -22 8 -19 -30 3 -44 16 -10 15
-10 -3 -8 -11 2 -21 12 -24 23 -2 11 -8 23 -14 26 -6 5 -5 12 4 22 8 8 16 11
17 6 2 -5 10 -9 18 -9z m480 0 c8 0 14 -4 14 -10 0 -5 -7 -7 -15 -4 -22 9 -20
-32 3 -45 16 -10 16 -10 -1 -11 -10 0 -20 8 -23 18 -3 9 -9 24 -13 32 -5 8 -3
20 3 26 6 6 13 8 14 3 2 -5 10 -9 18 -9z m-1536 -29 c0 -16 6 -32 13 -34 6 -3
-1 -6 -18 -6 -21 -1 -26 2 -16 8 9 6 11 18 7 35 -4 15 -2 26 4 26 5 0 10 -13
10 -29z m38 11 c2 -7 -2 -10 -12 -6 -9 3 -16 11 -16 16 0 13 23 5 28 -10z m70
-4 c2 -11 -5 -18 -20 -20 l-23 -5 25 -11 c23 -10 23 -11 4 -11 -32 -1 -48 23
-34 49 13 24 43 23 48 -2z m82 12 c0 -5 -3 -9 -7 -9 -26 4 -35 -3 -15 -12 27
-10 25 -34 -4 -35 -15 -1 -16 0 -1 3 21 5 23 23 3 23 -18 0 -29 16 -21 30 3 6
15 10 26 10 10 0 19 -4 19 -10z m61 -4 c-23 -13 -23 -13 -2 -19 32 -8 27 -37
-6 -36 -24 2 -25 2 -5 6 27 5 29 23 2 23 -11 0 -20 6 -20 13 0 19 10 27 34 27
20 -1 20 -1 -3 -14z m165 6 c6 -4 13 -19 16 -34 4 -24 2 -26 -26 -25 -38 2
-42 28 -6 38 21 6 11 14 -13 10 -5 -1 -6 3 -2 9 7 12 16 12 31 2z m91 -32 c1
-34 1 -34 -5 -5 -4 17 -12 30 -17 30 -5 0 -13 -13 -16 -30 -7 -30 -7 -30 -8 6
-1 32 2 36 22 35 18 -1 22 -7 24 -36z m50 13 l10 -28 11 28 c18 43 22 31 6
-17 -10 -30 -22 -46 -37 -49 -19 -5 -20 -5 -6 6 15 11 15 16 3 46 -16 39 -17
41 -6 41 5 0 13 -12 19 -27z m271 5 c2 -11 -5 -18 -20 -20 l-23 -5 25 -11 c23
-10 23 -11 4 -11 -30 -1 -44 19 -33 47 10 27 42 27 47 0z m52 -21 c0 -4 5 -5
10 -2 6 3 10 15 10 26 0 10 4 19 9 19 15 0 -19 -88 -36 -94 -9 -4 -18 -4 -21
-1 -3 2 2 7 11 11 15 5 15 9 2 41 -8 20 -15 38 -15 42 1 9 30 -31 30 -42z
m269 21 c15 -40 -27 -67 -48 -31 -11 21 3 53 25 53 8 0 18 -10 23 -22z m156
12 c3 -5 -3 -10 -14 -10 -28 0 -27 -28 2 -40 l22 -9 -22 0 c-31 -1 -48 33 -27
53 18 18 30 20 39 6z m84 -9 c13 -24 -9 -57 -33 -48 -16 6 -22 47 -9 60 12 13
32 7 42 -12z m78 -21 c1 -34 1 -34 -5 -5 -4 17 -12 30 -17 30 -5 0 -13 -13
-16 -30 -7 -30 -7 -30 -8 6 -1 32 2 36 22 35 18 -1 22 -7 24 -36z m152 10 c1
-14 8 -28 15 -32 6 -4 -7 -7 -29 -7 -22 1 -32 3 -22 6 10 3 17 14 17 29 0 14
-4 22 -10 19 -5 -3 -10 -1 -10 5 0 23 35 4 39 -20z m87 -10 c1 -26 1 -28 -3
-7 -2 15 -10 27 -18 27 -8 0 -16 -12 -18 -27 -3 -23 -4 -22 -6 8 -1 32 2 36
22 35 18 -1 22 -7 23 -36z m57 -17 c7 2 15 17 18 33 5 29 5 29 10 -7 4 -34 3
-36 -23 -37 -26 -1 -28 2 -26 36 l1 37 4 -33 c3 -20 9 -32 16 -29z m105 35 c2
-11 -5 -18 -20 -20 l-23 -5 25 -11 c24 -10 24 -11 3 -11 -28 -1 -45 27 -31 52
11 22 41 19 46 -5z"/>
<path d="M183 5013 c15 -2 37 -2 50 0 12 2 0 4 -28 4 -27 0 -38 -2 -22 -4z"/>
<path d="M160 4990 c0 -5 3 -9 8 -9 19 3 25 -2 12 -11 -10 -6 -11 -10 -2 -10
6 0 12 -5 12 -11 0 -6 -7 -9 -15 -5 -8 3 -15 1 -15 -4 0 -6 20 -10 45 -10 45
0 45 0 45 35 0 35 0 35 -45 35 -25 0 -45 -4 -45 -10z m80 -31 c0 -6 -4 -7 -10
-4 -5 3 -10 11 -10 16 0 6 5 7 10 4 6 -3 10 -11 10 -16z"/>
<path d="M1050 4975 c0 -28 24 -34 34 -9 8 20 -1 34 -20 34 -8 0 -14 -10 -14
-25z"/>
<path d="M1240 4976 c0 -17 5 -26 16 -26 10 0 14 7 12 22 -5 32 -28 35 -28 4z"/>
<path d="M1520 4975 c0 -20 4 -26 18 -23 9 2 17 12 17 23 0 11 -8 21 -17 23
-14 3 -18 -3 -18 -23z"/>
<path d="M2402 4698 c2 -18 8 -33 13 -33 6 0 11 15 13 33 3 24 -1 32 -13 32
-12 0 -16 -8 -13 -32z"/>
<path d="M162 4683 c5 -25 28 -28 28 -4 0 12 -6 21 -16 21 -9 0 -14 -7 -12
-17z"/>
<path d="M560 4679 c0 -24 23 -21 28 4 2 10 -3 17 -12 17 -10 0 -16 -9 -16
-21z"/>
<path d="M965 4700 c-3 -5 1 -10 10 -10 9 0 13 5 10 10 -3 6 -8 10 -10 10 -2
0 -7 -4 -10 -10z"/>
<path d="M1125 4700 c-3 -5 1 -10 10 -10 9 0 13 5 10 10 -3 6 -8 10 -10 10 -2
0 -7 -4 -10 -10z"/>
<path d="M1602 4683 c5 -25 28 -28 28 -4 0 12 -6 21 -16 21 -9 0 -14 -7 -12
-17z"/>
<path d="M1765 4700 c-3 -5 1 -10 10 -10 9 0 13 5 10 10 -3 6 -8 10 -10 10 -2
0 -7 -4 -10 -10z"/>
<path d="M1447 4533 c-13 -12 -7 -33 8 -33 8 0 15 9 15 20 0 20 -11 26 -23 13z"/>
<path d="M1522 4538 c2 -18 8 -33 13 -33 6 0 11 15 13 33 3 24 -1 32 -13 32
-12 0 -16 -8 -13 -32z"/>
<path d="M240 4519 c0 -24 23 -21 28 4 2 10 -3 17 -12 17 -10 0 -16 -9 -16
-21z"/>
<path d="M408 4533 c7 -3 16 -2 19 1 4 3 -2 6 -13 5 -11 0 -14 -3 -6 -6z"/>
<path d="M882 4523 c5 -25 28 -28 28 -4 0 12 -6 21 -16 21 -9 0 -14 -7 -12
-17z"/>
<path d="M1045 4540 c-3 -5 1 -10 10 -10 9 0 13 5 10 10 -3 6 -8 10 -10 10 -2
0 -7 -4 -10 -10z"/>
<path d="M80 4390 c0 -15 5 -20 18 -18 9 2 17 10 17 18 0 8 -8 16 -17 18 -13
2 -18 -3 -18 -18z"/>
<path d="M248 4373 c7 -3 16 -2 19 1 4 3 -2 6 -13 5 -11 0 -14 -3 -6 -6z"/>
<path d="M560 4350 c0 -5 4 -10 9 -10 6 0 13 5 16 10 3 6 -1 10 -9 10 -9 0
-16 -4 -16 -10z"/>
<path d="M968 4373 c7 -3 16 -2 19 1 4 3 -2 6 -13 5 -11 0 -14 -3 -6 -6z"/>
<path d="M1280 4360 c0 -11 7 -20 15 -20 8 0 15 9 15 20 0 11 -7 20 -15 20 -8
0 -15 -9 -15 -20z"/>
<path d="M1522 4363 c5 -25 28 -28 28 -4 0 12 -6 21 -16 21 -9 0 -14 -7 -12
-17z"/>
<path d="M2005 4380 c-3 -5 1 -10 10 -10 9 0 13 5 10 10 -3 6 -8 10 -10 10 -2
0 -7 -4 -10 -10z"/>
</g>
</svg>
